PathFileType	4	(X/Y/Z)	29_1_13_p1_0-283.trc
DataRate	CameraRate	NumFrames	NumMarkers	Units	OrigDataRate	OrigDataStartFrame	OrigNumFrames
59.0	59.0	6	27	m	59.0	71	284
Frame#	Time	RHip			RKnee			RAnkle			RBigToe			RSmallToe			RHeel			LHip			LKnee			LAnkle			LBigToe			LSmallToe			LHeel			Neck			Head			Nose			RShoulder			RElbow			RWrist			RThumb			RIndex			RPinky			LShoulder			LElbow			LWrist			LThumb			LIndex			LPinky			
		X1	Y1	Z1	X2	Y2	Z2	X3	Y3	Z3	X4	Y4	Z4	X5	Y5	Z5	X6	Y6	Z6	X7	Y7	Z7	X8	Y8	Z8	X9	Y9	Z9	X10	Y10	Z10	X11	Y11	Z11	X12	Y12	Z12	X13	Y13	Z13	X14	Y14	Z14	X15	Y15	Z15	X16	Y16	Z16	X17	Y17	Z17	X18	Y18	Z18	X19	Y19	Z19	X20	Y20	Z20	X21	Y21	Z21	X22	Y22	Z22	X23	Y23	Z23	X24	Y24	Z24	X25	Y25	Z25	X26	Y26	Z26	X27	Y27	Z27	
71	1.2033898305084745	0.3513858986215097	0.5908219780261689	0.9126328342596036	0.3256748456333579	0.6883557287515133	1.3425521924315416	0.30126869871882644	0.7931268820427487	1.7403449885036024	0.2899289227038484	0.6168664298757306	1.770118807997646	0.3510735603986456	0.62824317280325	1.7572875876187894	0.27771661976165735	0.8860342446680045	1.8057706013918604	0.13160790476830145	0.597338844487709	0.9153464451295988	0.11480869767107646	0.6695188588260974	1.3075425548383621	0.09964520317170864	0.7829416128681281	1.7320724326828	0.12027867755211559	0.5644131695550426	1.7313993103433176	0.058924745520467475	0.6490280994270808	1.7432792998971034	0.1154556158929431	0.8543501079029902	1.7752826934513977	0.2768458804025095	0.4936934423628437	0.3244889591668811	0.3098566072168286	0.39795186384163633	0.07229582281261812	0.27489081014165645	0.3222248191945114	0.20936620104375273	0.41874243122909277	0.4694200232438945	0.43723703383345214	0.4570299301151133	0.4566047663078584	0.6815499516847126	0.3220219246190765	0.37861150724633297	0.873130963723689	0.23377850214630946	0.3422954367918986	0.933545831537767	0.2294043221114662	0.38832924770107347	0.9580537641415368	0.23337076129831838	0.4447704175465929	0.9780879030145787	0.11532597811237331	0.459975126260696	0.42002069494465805	0.07894140881287517	0.45299997138811054	0.6757242062179034	0.1719031848577414	0.37405028412144503	0.8514242750576877	0.2822547734239414	0.35781372864223293	0.9076757884775711	0.2810559669428513	0.38376946001603807	0.93466569181656	0.23119534127520333	0.41776935055323217	0.9760212722276704
72	1.2203389830508475	0.348482456280492	0.5884701441461935	0.9117708990393317	0.3309849393520871	0.6765624873345243	1.3393927522998035	0.30127683567669794	0.793084773902477	1.740284278256983	0.29502814782173503	0.6015001889739455	1.7634154488403355	0.35267971826936867	0.5995197256721474	1.7451818834763395	0.27539900797728684	0.885813175264318	1.801609538645106	0.13157225891909516	0.5973747024732788	0.9154176852165585	0.11498092205912405	0.673131058766178	1.3089934720360406	0.09968690489385178	0.7825286196326627	1.7318141338436654	0.11796472165407645	0.5473822071375305	1.719653787328526	0.06299672906191635	0.6187482404212625	1.7304206022505702	0.11675544416937865	0.8514757400390036	1.7694764340566078	0.2818021776700114	0.4806425808853702	0.3222433680918551	0.3098645373995227	0.3977466678250732	0.07210199857901789	0.27477791948729985	0.32228125135075036	0.2092624083876975	0.4186744871287677	0.469457586900316	0.43723344003645015	0.45696880838961196	0.45698185108857536	0.6813409754875449	0.322074004119671	0.3787596370484952	0.8731453932139779	0.2317866697267918	0.32620863131816086	0.9273722159991302	0.22654656640021456	0.3732139563995225	0.95109507452149	0.23788241765483834	0.43313445757037855	0.9759042101219565	0.12165783405285503	0.47473439392566485	0.4199452641814636	0.071552396779168	0.45534180733428503	0.6747692242055664	0.1719427688870822	0.37409548510829865	0.8514475868904334	0.2828350086975231	0.3440311995070186	0.9018354609705396	0.2821334923014498	0.38253061299723684	0.931306255488789	0.2359124834942549	0.40406516497470996	0.977533692076033
73	1.2372881355932204	0.35217572462077285	0.589161287144443	0.9120199439357447	0.33094599200822905	0.676441972195329	1.3393599088873538	0.30645660058190266	0.7761081606029346	1.7334750051341734	0.29494303813848183	0.60124529721767	1.7632762022488526	0.35265949228557764	0.5990149330055005	1.7449811232009604	0.2768578443919935	0.8843373995340957	1.7960551725098788	0.1323887888470574	0.5964142226358781	0.9118012411879688	0.114956626718122	0.673126150535956	1.3090562038081126	0.10111354039007625	0.7812579267441915	1.7270044380898673	0.11848038099311205	0.5503607925913184	1.7251685150538678	0.06300469305606116	0.6189867438127212	1.730605566433555	0.12277248315621846	0.8348662109403555	1.7627947667986736	0.2814330635101052	0.4812043488698811	0.3252816228481524	0.3098530855094243	0.39780490093291515	0.07204591876922584	0.2747950257089501	0.3222880005216636	0.20934295456675894	0.41870613835284565	0.46954780597507706	0.4373145453214825	0.45324165635005104	0.4700762311030101	0.6825633756609716	0.32205218193940705	0.3788090172526747	0.873165015439322	0.23452158002536408	0.3397792246585202	0.9296532108415773	0.22918918160806578	0.3858112352244095	0.9532489395525753	0.23788468424621026	0.43294696487737094	0.9757970526334695	0.11541823793498854	0.460049835413994	0.4199531049143602	0.07155009732574855	0.45482200341863555	0.6748634111586436	0.1719369099034048	0.37384441877664576	0.8514282213707246	0.2780204552688625	0.3555610614254272	0.9067147480647528	0.276549211713787	0.39478917792181306	0.9360195235239447	0.23580543131800114	0.4037755835925411	0.9771960603925238
74	1.2542372881355932	0.3513827156026299	0.5903417394090481	0.9163121455641229	0.3262444651467317	0.6906711159640381	1.347396550425131	0.3064227226930845	0.775995422826732	1.7334317755415305	0.2949763924310148	0.6010683084007167	1.7631858108216116	0.3526249995275905	0.5987263575683924	1.7448749825711685	0.2768463364181072	0.8842569380768717	1.7959463401258753	0.1315721898099478	0.5972751822029809	0.9155494628388089	0.11517394427500528	0.6720693310838578	1.3132426916648359	0.10109312591815656	0.7813601242747329	1.7269844695651715	0.12035704254559301	0.5637110971313006	1.7308867736995555	0.06292370981698207	0.6191472947798812	1.7307778662560378	0.12304277861700262	0.8350888990625395	1.7628432323266758	0.2769375645894793	0.49363032729225637	0.32464900572304795	0.30985514028466693	0.3978016887305077	0.07215346260981798	0.2747674887765958	0.3222985202848976	0.20933710356289675	0.4186735990777355	0.4695589464265505	0.43731281015754375	0.4532189022588973	0.470002239539285	0.6826156508817253	0.3220636854855221	0.3787508493477214	0.8731455706616864	0.23457068817717883	0.3412880193995705	0.9301793683637679	0.22916020218545796	0.38647188911518643	0.9534286324959621	0.2385494251213859	0.43211544759384135	0.9725278256206199	0.11540001059755142	0.4601426338295809	0.4199954404617174	0.07334705900779113	0.46906704084536205	0.6794705962610063	0.1720015289618475	0.37390356052312684	0.85149786372457	0.2777313712076421	0.3565037298978444	0.9036148985136283	0.27198333639403116	0.39530087659074953	0.9364061920757676	0.2312404794263066	0.4172436298077476	0.9757771571508161
75	1.271186440677966	0.35138412621800225	0.5902648894943502	0.9162486158171546	0.33043979388551203	0.6730463068724976	1.3382558312243709	0.3013165008849468	0.7932066859707652	1.7402875702607612	0.2978084848236543	0.6151256298470049	1.7691049777289245	0.35574988450749007	0.6125535471013601	1.7505163421027479	0.27619362566614836	0.8889362624662307	1.8071036161331564	0.1316093874632243	0.5971634537883618	0.9154525693023653	0.11499027561979792	0.6731344683559802	1.3091086233917508	0.1019601378373888	0.7991409969151868	1.7341111875599586	0.11992715520570224	0.5611681841579657	1.72567715612669	0.06296724782286493	0.6192315327922228	1.7307065650537607	0.11686800787824574	0.8527366608431489	1.7698835608573473	0.281800545384043	0.48055614533738794	0.32230946089485185	0.309807566073816	0.39781258444528167	0.07212842791015417	0.2747077142336258	0.32239554448532687	0.2093116878330505	0.41867666160772377	0.4695780046633611	0.437245633993647	0.45316203326445786	0.4702883197307571	0.6825799306416123	0.3220575595760575	0.3788046048841897	0.8731665670328405	0.23188702758377275	0.32748367335287687	0.9277756139479898	0.2289484988425941	0.38619723322071464	0.9535201655376143	0.23332281125274287	0.4449409923843313	0.9781152647614442	0.11768612427579994	0.47246914797787826	0.4199293135259709	0.07833533454017921	0.45436310020273274	0.674911093581433	0.17200330840122624	0.37396570856923056	0.8514858521326271	0.2779839197729469	0.3559833361422939	0.9071022790439264	0.2765004721903613	0.39612505927379094	0.9367560059373007	0.23125439920522506	0.4176295326048114	0.9758790184944267
76	1.2881355932203389	0.34776828955263484	0.5892212252428924	0.9158925295247677	0.3313571782814753	0.672880490306904	1.3297784985148686	0.3012094611610642	0.7929815041519652	1.7401592683655411	0.28947686337617806	0.6155571683213091	1.7696118938933676	0.3505363965117744	0.6266670912756596	1.7566778205853089	0.2769298821595517	0.8828788721234822	1.79981456247637	0.13171011706376637	0.5972636937315617	0.9154186008926849	0.11594215654856033	0.6683949361032342	1.3033087411653066	0.10056320587017373	0.778166180882786	1.7207333816410897	0.12035900762997379	0.5637121621228992	1.7306005831841642	0.0629465204398111	0.6186809656632898	1.7303550283844042	0.1224826410781071	0.8328513321513208	1.761891035702668	0.2769575253883827	0.49191575631784085	0.32072858808262683	0.30696003583858966	0.3863617606882626	0.07369403619548896	0.27476273535898704	0.3221428925434046	0.20935921198289464	0.41870643806921026	0.46941686994433485	0.43705301268609315	0.4531195676941282	0.47033731093078524	0.6824081603057187	0.3220099961353863	0.3788761370381332	0.8730538236700032	0.23330563190033216	0.34158013967491774	0.9332702166678927	0.22935059606321537	0.388366865010433	0.9579981302960684	0.23309422777519492	0.44317217177342977	0.973187109645056	0.1172380739503552	0.4731252686642079	0.42329964139249315	0.07834098719125597	0.45252475830977396	0.6712132705790442	0.17186856309657106	0.3719082275288801	0.8472814528657313	0.282184646622536	0.35849347780149815	0.904368565991695	0.2761573592681716	0.3971246267007355	0.9400088808994255	0.2309953094666394	0.4151089465294712	0.9761154620104625
